<svg viewBox="-550 -550 1725 1725"
    xmlns="http://www.w3.org/2000/svg" stroke-miterlimit="1.414" stroke-linejoin="round" id="plex-icon-music-560" aria-hidden="true" class="PlexIcon-plexIcon-8Tamaj" style="font-size: 33px; line-height: 130px;">
    <path d="m199.855 473.521c.096 1.057.145 2.131.145 3.221 0 33.115-44.808 68.962-100 80-55.192 11.039-100-6.885-100-40 0-33.115 44.808-68.961 100-80 22.504-4.501 43.282-4.186 60 .01l0-356.752 400-80 0 392c0 .52-.05 1.028-.145 1.521.096 1.057.145 2.131.145 3.221 0 33.115-44.808 68.962-100 80-55.192 11.039-100-6.885-100-40 0-33.115 44.808-68.961 100-80 22.504-4.501 43.282-4.186 60 .01l0-232.852-320 64.2 0 283.9c0 .52-.05 1.028-.145 1.521"></path>
    <!-- 560 130 -->
</svg>
